<svg xmlns="http://www.w3.org/2000/svg" viewBox="0 0 256 256" width="24" height="24">
    <path
        d="M5 3c-1.1 0-2 .9-2 2v14c0 1.1.9 2 2 2h14c1.1 0 2-.9 2-2V5c0-1.1-.9-2-2-2zm0 2h14v14H5zm2.8 1.3c-.9 0-1.4.5-1.4 1.2s.5 1.2 1.3 1.2c.9 0 1.4-.5 1.4-1.2s-.5-1.2-1.3-1.2zM6.5 10v7H9v-7zm4.6 0v7h2.5v-3.8c0-1.1.9-1.3 1.1-1.3.2 0 .9.2.9 1.3V17H18v-3.8c0-2.2-1-3.2-2.2-3.2-1.2 0-1.9.4-2.2 1v-1z"
        transform="scale(10.66667)" fill="#b9f1b0" stroke-miterlimit="10" font-family="none"
        font-weight="none" font-size="none" text-anchor="none" style="mix-blend-mode:normal" />
</svg>